<svg width="69" height="84" viewBox="0 0 69 84" fill="none" xmlns="http://www.w3.org/2000/svg">
<path d="M11.0586 0.923218H4.39844V23.9994H11.0586V0.923218Z" fill="#3F3D56"/>
<path d="M0.0437553 20.1533V83.2756H68.1822V20.1533H68.0398L68.4385 19.8968L48.714 0.666607L16.1985 0.369141L0 19.6582L0.0437553 20.1533Z" fill="#3F3D56"/>
<path d="M0.0439453 19.6405V83.2757H36.4186V24.1582L16.1819 0.410278L0.0439453 19.6405Z" fill="#4C9B7B"/>
<path d="M21.8173 40.2467H14.3887V46.819H21.8173V40.2467Z" fill="white"/>
<path d="M21.8173 28.871H14.3887V35.339H21.8173V28.871Z" fill="white"/>
<path d="M54.831 38.5028H47.4023V45.0751H54.831V38.5028Z" fill="white"/>
<path d="M54.831 27.1268H47.4023V33.5949H54.831V27.1268Z" fill="white"/>
<path d="M21.8173 63.3704H14.3887V69.9426H21.8173V63.3704Z" fill="white"/>
<path d="M21.8173 51.9945H14.3887V58.4625H21.8173V51.9945Z" fill="white"/>
<path d="M54.831 61.6265H47.4023V68.1987H54.831V61.6265Z" fill="white"/>
<path d="M54.831 50.2507H47.4023V56.7188H54.831V50.2507Z" fill="white"/>
</svg>
