<svg width="142" height="93" viewBox="0 0 142 93" fill="none" xmlns="http://www.w3.org/2000/svg">
<path d="M66.2318 49.4751C61.3177 49.4751 56.514 48.0243 52.4281 45.3061C48.3422 42.5879 45.1576 38.7244 43.277 34.2042C41.3965 29.684 40.9045 24.7101 41.8632 19.9115C42.8219 15.1129 45.1882 10.7051 48.663 7.24547C52.1378 3.78586 56.5649 1.42984 61.3846 0.475336C66.2042 -0.479167 71.1999 0.0107191 75.7399 1.88304C80.28 3.75537 84.1604 6.92604 86.8905 10.9941C89.6206 15.0622 91.0778 19.8449 91.0778 24.7375C91.0704 31.2961 88.4503 37.5839 83.7923 42.2214C79.1344 46.859 72.8191 49.4677 66.2318 49.4751ZM66.2318 0.663571C61.4495 0.663571 56.7746 2.07548 52.7983 4.72077C48.822 7.36605 45.7229 11.1259 43.8928 15.5248C42.0627 19.9238 41.5839 24.7642 42.5168 29.4341C43.4498 34.104 45.7527 38.3936 49.1343 41.7604C52.5158 45.1272 56.8242 47.42 61.5146 48.3489C66.205 49.2778 71.0667 48.8011 75.4849 46.979C79.9031 45.1569 83.6795 42.0713 86.3363 38.1123C88.9932 34.1534 90.4113 29.4989 90.4113 24.7375C90.4041 18.3549 87.8543 12.2358 83.3213 7.72264C78.7883 3.20946 72.6424 0.670785 66.2318 0.663571Z" fill="#3F3D56"/>
<path d="M79.0209 44.1733C79.1984 43.9247 79.4317 43.721 79.7024 43.5782C79.973 43.4354 80.2734 43.3576 80.5796 43.3509C80.8858 43.3443 81.1893 43.409 81.4659 43.5399C81.7426 43.6707 81.9846 43.8642 82.1728 44.1048L88.7795 41.869L87.8636 45.3622L81.7302 46.9497C81.3462 47.2088 80.8829 47.3249 80.4214 47.2778C79.96 47.2307 79.5299 47.0234 79.2067 46.6921C78.8835 46.3609 78.6877 45.9269 78.6537 45.4664C78.6198 45.0058 78.7498 44.548 79.0209 44.1733Z" fill="#FFB8B8"/>
<path d="M111.558 58.0375C111.716 57.7989 111.82 57.5287 111.861 57.246C111.903 56.9632 111.882 56.6748 111.8 56.401C111.718 56.1271 111.576 55.8746 111.385 55.6611C111.195 55.4476 110.959 55.2784 110.695 55.1654L111.201 48.2363L108.037 50.0001L108.042 56.3097C107.881 56.7633 107.892 57.26 108.074 57.7058C108.256 58.1516 108.596 58.5154 109.029 58.7284C109.463 58.9414 109.959 58.9887 110.425 58.8614C110.891 58.734 111.294 58.4409 111.558 58.0375V58.0375Z" fill="#FFB8B8"/>
<path d="M110.771 31.1021L111.636 53.1523L108.121 52.9579L107.34 29.8225L108.081 29.4752C108.363 29.3431 108.674 29.2826 108.985 29.299C109.296 29.3155 109.598 29.4084 109.865 29.5695C110.131 29.7307 110.353 29.955 110.511 30.2224C110.669 30.4898 110.758 30.7921 110.771 31.1021Z" fill="#4C9B7B"/>
<path d="M99.9009 90.6428L97.507 90.6426L96.3682 81.4491L99.9013 81.4493L99.9009 90.6428Z" fill="#FFB8B8"/>
<path d="M95.7966 89.9615H100.413V92.8558H92.8896C92.8896 92.4757 92.9648 92.0993 93.1109 91.7482C93.257 91.3971 93.4711 91.078 93.7411 90.8092C94.011 90.5405 94.3315 90.3273 94.6841 90.1819C95.0368 90.0364 95.4148 89.9615 95.7966 89.9615Z" fill="#2F2E41"/>
<path d="M119.819 87.7941L117.646 88.7955L112.733 80.9292L115.94 79.4514L119.819 87.7941Z" fill="#FFB8B8"/>
<path d="M115.807 88.8928L119.997 86.9617L121.218 89.5881L114.39 92.7351C114.066 92.0385 114.034 91.2424 114.299 90.5218C114.565 89.8012 115.107 89.2152 115.807 88.8928Z" fill="#2F2E41"/>
<path d="M94.2166 60.6394L96.6855 88.6912L100.005 88.3024L102.458 62.6786L116.017 87.1359L119.532 86.1638C119.532 86.1638 108.219 52.4718 107.34 49.6528C106.377 46.5625 98.7483 45.3757 98.7483 45.3757L98.4554 45.0841C95.1775 49.4774 93.8646 55.1778 94.2166 60.6394Z" fill="#2F2E41"/>
<path d="M107.369 27.0416C110.018 27.0416 112.165 24.9038 112.165 22.2666C112.165 19.6294 110.018 17.4916 107.369 17.4916C104.72 17.4916 102.573 19.6294 102.573 22.2666C102.573 24.9038 104.72 27.0416 107.369 27.0416Z" fill="#FFB8B8"/>
<path d="M110.381 31.4801L107.047 48.7771C107.047 48.7771 101.982 47.77 100.178 46.5569C99.4631 46.0748 98.8149 45.577 98.2681 45.126C98.1607 45.0385 98.0592 44.951 97.9596 44.8674C97.0575 44.0995 96.5029 43.5279 96.5029 43.5279C96.5029 43.5279 96.7918 42.1184 97.1453 40.4503C97.5397 38.582 98.0182 36.3871 98.2623 35.4908C98.7992 33.5253 100.643 31.2351 102.08 29.6759C102.6 29.1105 103.265 28.6967 104.004 28.4789C104.742 28.261 105.526 28.2474 106.272 28.4394L108.873 29.1082C109.38 29.2385 109.818 29.5563 110.098 29.9969C110.379 30.4376 110.479 30.968 110.381 31.4801Z" fill="#4C9B7B"/>
<path opacity="0.2" d="M102.32 39.035C102.32 39.035 100.527 42.7444 97.9596 44.8674C97.0575 44.0995 96.5029 43.5279 96.5029 43.5279C96.5029 43.5279 96.7918 42.1184 97.1453 40.4503C99.2971 39.3188 101.515 38.6053 102.32 39.035Z" fill="black"/>
<path d="M105.498 32.2449C105.321 32.1551 105.136 32.0819 104.946 32.0263C104.556 31.9201 104.146 31.9117 103.753 32.002C103.359 32.0922 102.995 32.2783 102.691 32.5435L92.1551 40.2273L83.7754 43.0337L85.2894 46.5994L97.7818 43.5619L106.067 36.231C106.352 35.9587 106.568 35.6228 106.697 35.2511C106.826 34.8793 106.864 34.4823 106.809 34.0929C106.753 33.7035 106.605 33.3328 106.378 33.0115C106.15 32.6901 105.848 32.4274 105.498 32.2449Z" fill="#4C9B7B"/>
<path d="M107.653 26.9976C108.336 25.9804 108.874 24.5698 108.123 23.602C107.381 22.6466 105.918 22.7873 104.782 22.3646C103.199 21.7758 102.281 19.9248 102.568 18.2672C102.854 16.6095 104.19 15.2354 105.782 14.6732C107.375 14.1109 109.17 14.2938 110.729 14.9412C112.649 15.7383 114.295 17.2801 114.985 19.2332C115.676 21.1863 115.307 23.5313 113.874 25.0325C112.339 26.6419 109.929 27.0708 107.7 27.0448" fill="#2F2E41"/>
<path d="M115.184 21.3674C115.379 22.4544 116.577 23.0718 117.678 23.2075C118.778 23.3431 119.917 23.1691 120.988 23.4542C122.878 23.9566 124.123 25.7654 124.809 27.5885C125.495 29.4116 125.799 31.3792 126.69 33.1121C127.581 34.845 129.309 36.3727 131.257 36.2106C130.876 37.1674 130.207 37.9837 129.342 38.548C128.477 39.1124 127.458 39.3973 126.425 39.3639C125.391 39.3306 124.393 38.9805 123.567 38.3616C122.741 37.7427 122.126 36.8849 121.807 35.9055C121.092 33.7053 121.913 31.0815 120.662 29.1334C119.969 28.0553 118.773 27.4212 117.619 26.8562C116.466 26.2912 115.256 25.7113 114.482 24.689C113.709 23.6667 113.555 22.0521 114.507 21.1932" fill="#2F2E41"/>
<path d="M40.1865 90.4287L42.4752 89.7294L40.8553 80.6077L37.4775 81.6398L40.1865 90.4287Z" fill="#A0616A"/>
<path d="M47.541 90.4966L40.3483 92.6943L39.4955 89.9275L43.9092 88.5789C44.6462 88.3537 45.4429 88.4292 46.124 88.7888C46.8051 89.1485 47.3148 89.7628 47.541 90.4966Z" fill="#2F2E41"/>
<path d="M19.8783 90.4809H22.2723L23.4111 81.2875L19.8779 81.2877L19.8783 90.4809Z" fill="#A0616A"/>
<path d="M26.8896 92.694L19.3659 92.6943L19.3657 89.8001L23.9826 89.7999C24.7536 89.7999 25.493 90.1047 26.0381 90.6475C26.5833 91.1902 26.8896 91.9264 26.8896 92.694Z" fill="#2F2E41"/>
<path d="M20.4876 59.943C20.291 59.7714 20.1345 59.5588 20.0292 59.3204C19.9239 59.0821 19.8725 58.8236 19.8784 58.5632C19.8843 58.3029 19.9475 58.047 20.0635 57.8136C20.1795 57.5802 20.3454 57.375 20.5497 57.2124L22.4058 33.942L26.1805 34.881L23.1582 57.5805C23.4099 57.9403 23.5202 58.3795 23.4684 58.8149C23.4165 59.2502 23.2061 59.6516 22.8769 59.9428C22.5477 60.234 22.1227 60.3948 21.6823 60.3949C21.242 60.3949 20.8169 60.2342 20.4876 59.943Z" fill="#A0616A"/>
<path d="M29.4141 25.1109C32.0629 25.1109 34.2101 22.9731 34.2101 20.3359C34.2101 17.6988 32.0629 15.5609 29.4141 15.5609C26.7654 15.5609 24.6182 17.6988 24.6182 20.3359C24.6182 22.9731 26.7654 25.1109 29.4141 25.1109Z" fill="#A0616A"/>
<path d="M22.8633 34.4037C21.7236 32.8458 21.6885 30.7003 22.9162 29.2102C23.7174 28.2378 25.0576 27.4596 27.2951 27.4596C33.2591 27.4596 35.5213 32.169 35.5213 32.169C35.5213 32.169 37.9892 36.6737 36.5496 40.7689C35.11 44.864 35.11 45.2735 35.11 45.2735L25.6499 44.4545C25.6499 44.4545 27.2458 40.3938 22.8633 34.4037Z" fill="#CCCCCC"/>
<path d="M19.9463 38.48L21.9843 31.8416C22.1208 31.3971 22.3536 30.9878 22.6665 30.6428C22.9793 30.2977 23.3644 30.0253 23.7946 29.8447C24.2248 29.6642 24.6895 29.5799 25.156 29.5978C25.6226 29.6158 26.0794 29.7355 26.4943 29.9486C27.2142 30.3198 27.7653 30.9496 28.036 31.7105C28.3067 32.4713 28.2767 33.3061 27.952 34.0457L25.3611 39.9205L19.9463 38.48Z" fill="#CCCCCC"/>
<path d="M34.9047 44.2496L42.9253 85.6107L38.6065 86.8392L28.118 59.6065L23.388 87.4535L18.8635 88.0678C18.8635 88.0678 16.8789 51.2227 25.6502 44.4544L34.9047 44.2496Z" fill="#2F2E41"/>
<path d="M45.6846 39.9566C45.6151 40.0389 45.5522 40.1267 45.4966 40.2189L35.824 40.6858L33.9615 35.0245L30.7275 36.5549L33.7713 44.9869L45.7338 42.6576C46.0149 42.9632 46.3827 43.1763 46.7884 43.2686C47.1942 43.3609 47.6185 43.3281 48.005 43.1745C48.3915 43.0208 48.7219 42.7537 48.9522 42.4085C49.1825 42.0634 49.3018 41.6567 49.2942 41.2424C49.2867 40.8281 49.1526 40.4259 48.9099 40.0893C48.6672 39.7527 48.3273 39.4977 47.9355 39.3581C47.5436 39.2185 47.1184 39.201 46.7163 39.3079C46.3142 39.4148 45.9544 39.6411 45.6846 39.9566V39.9566Z" fill="#A0616A"/>
<path d="M29.2699 32.7636C29.2153 32.302 29.2633 31.834 29.4103 31.3929C29.5574 30.9517 29.8 30.5481 30.121 30.2105C30.442 29.873 30.8335 29.6098 31.2679 29.4395C31.7023 29.2692 32.1689 29.1959 32.6349 29.2249C33.4439 29.2766 34.2029 29.6327 34.758 30.221C35.3131 30.8093 35.6227 31.5857 35.624 32.3929V38.809L30.0845 39.6576L29.2699 32.7636Z" fill="#CCCCCC"/>
<path d="M30.4692 25.1542C29.7493 25.1511 29.194 24.3965 29.2263 23.6806C29.2586 22.9646 29.7415 22.3347 30.3234 21.9128C30.9053 21.4909 31.5877 21.2339 32.2367 20.9237C32.8856 20.6135 33.5288 20.2266 33.9295 19.6312C34.1715 19.2415 34.316 18.7996 34.3508 18.3427C34.3855 17.8858 34.3096 17.4273 34.1293 17.0057C33.7564 16.1626 33.1163 15.4644 32.3068 15.018C31.1024 14.3229 29.6812 14.0991 28.3201 14.3904C26.975 14.6842 24.9704 15.4977 24.1823 16.622L23.3606 18.8496C22.5234 19.852 23.1716 21.3407 23.6863 22.5395C24.201 23.7383 25.2969 24.6403 26.5335 25.0691C27.7882 25.4705 29.1313 25.5106 30.4078 25.1848" fill="#2F2E41"/>
<path d="M26.0851 17.7353C25.7319 17.1716 25.1197 16.8131 24.4867 16.6027C23.7534 16.359 22.9736 16.287 22.2078 16.3925C21.442 16.498 20.711 16.778 20.0718 17.2107C19.4325 17.6435 18.9021 18.2173 18.522 18.8875C18.1419 19.5577 17.9223 20.3063 17.8803 21.0748C17.8133 22.3024 18.1993 23.5029 18.4262 24.7114C18.6531 25.9198 18.6982 27.2546 18.0289 28.2878C17.5192 29.0747 16.6691 29.5702 15.8301 29.9933C15.1308 30.3459 14.3743 30.6768 13.5937 30.6066C12.813 30.5363 12.0283 29.9206 12.049 29.1405C11.7877 29.6999 11.6112 30.2948 11.5254 30.9058C11.4705 31.5194 11.6224 32.1814 12.0675 32.6093C12.7144 33.2311 13.7394 33.1856 14.6285 33.0514C16.5533 32.761 18.5023 32.2163 20.0229 31.0061C21.5435 29.7959 22.5525 27.8032 22.152 25.9064C21.9848 25.1141 21.5916 24.3907 21.274 23.6454C20.9563 22.9001 20.7083 22.0849 20.8542 21.2883C20.9406 20.878 21.1164 20.4915 21.3692 20.1562C21.622 19.8209 21.9456 19.5449 22.3173 19.3477C23.0689 18.9587 23.9289 18.8288 24.7625 18.9786C25.3091 19.0679 25.9916 19.2065 26.3157 18.7594C26.4016 18.6177 26.4455 18.4547 26.4423 18.2893C26.439 18.1239 26.3888 17.9627 26.2974 17.8245C26.1104 17.5511 25.8722 17.3162 25.5959 17.1325" fill="#2F2E41"/>
<path d="M75.098 32.6067C74.4167 34.4631 73.1522 35.8096 71.3047 36.6464C69.4655 37.4606 67.2096 37.5563 64.537 36.9337L63.1412 40.737L59.7479 39.4898L61.1063 35.7884C59.4655 35.0826 57.9787 34.2021 56.6458 33.147C55.3129 32.0918 54.3157 31.0316 53.6541 29.9663L57.0408 26.5094C57.6678 27.4592 58.4793 28.3612 59.4751 29.2154C60.471 30.0696 61.5589 30.7778 62.739 31.3399L64.8203 25.669C63.3553 24.6938 62.1559 23.7648 61.2219 22.882C60.2879 21.9991 59.6138 20.9678 59.1996 19.7878C58.7938 18.5853 58.8692 17.2256 59.4258 15.7088C60.1155 13.8298 61.384 12.4719 63.2315 11.6351C65.11 10.784 67.3927 10.6853 70.0796 11.3388L71.463 7.56951L74.8563 8.81671L73.4978 12.5181C76.1972 13.7672 78.2399 15.3016 79.6259 17.1213L76.3964 20.6745C75.057 19.0775 73.5424 17.8528 71.8527 17.0005L69.734 22.7733C71.1846 23.7176 72.3656 24.627 73.277 25.5015C74.2193 26.3617 74.8934 27.393 75.2992 28.5956C75.7134 29.7755 75.6463 31.1126 75.098 32.6067ZM64.9887 17.4452C64.781 18.0111 64.8256 18.5542 65.1225 19.0744C65.4194 19.5946 65.9293 20.1289 66.6523 20.6772L68.422 15.8552C67.4876 15.743 66.7337 15.8384 66.1604 16.1415C65.5953 16.422 65.2048 16.8566 64.9887 17.4452ZM66.1821 32.4513C67.063 32.5695 67.7818 32.4997 68.3385 32.2419C68.8953 31.9841 69.2775 31.5722 69.4852 31.0062C69.6929 30.4402 69.6483 29.8972 69.3515 29.377C69.0772 28.8651 68.594 28.3278 67.902 27.7651L66.1821 32.4513Z" fill="#4C9B7B"/>
</svg>
