<svg width="57" height="84" viewBox="0 0 57 84" fill="none" xmlns="http://www.w3.org/2000/svg">
<path d="M0.231747 39.9267C0.129276 39.9818 0.0527471 40.0753 0.0189564 40.1869C-0.0148344 40.2985 -0.00312949 40.4189 0.0515068 40.5219L21.9355 81.648C21.9903 81.7509 22.0836 81.8276 22.1948 81.8616C22.306 81.8955 22.426 81.8837 22.5286 81.8289L53.4637 65.2574C53.5662 65.2024 53.6427 65.1088 53.6765 64.9973C53.7103 64.8857 53.6986 64.7652 53.644 64.6623L31.76 23.5361C31.7052 23.4333 31.6119 23.3565 31.5007 23.3226C31.3895 23.2887 31.2694 23.3004 31.1669 23.3553L0.231747 39.9267Z" fill="#3F3D56"/>
<path d="M3.10732 41.1285L23.1334 78.7625L50.5883 64.0557L30.5622 26.4213L3.10732 41.1285ZM1.36761 42.0603L1.37146 42.0584L1.36719 42.0606L1.36761 42.0603Z" fill="white"/>
<path d="M10.0298 45.266C9.60325 45.4945 9.51244 46.1615 9.82702 46.7526C10.1416 47.3437 10.7445 47.6391 11.171 47.4107L31.2788 36.6392C31.7053 36.4107 31.7961 35.7437 31.4816 35.1526C31.167 34.5614 30.5641 34.266 30.1376 34.4945L10.0298 45.266Z" fill="#4C9B7B"/>
<path d="M12.5073 49.9217C12.0808 50.1502 11.99 50.8172 12.3046 51.4084C12.6191 51.9995 13.222 52.2949 13.6485 52.0664L33.7563 41.295C34.1829 41.0665 34.2737 40.3995 33.9591 39.8083C33.6446 39.2172 33.0417 38.9218 32.6151 39.1503L12.5073 49.9217Z" fill="#4C9B7B"/>
<path d="M14.9849 54.5775C14.5583 54.806 14.4675 55.473 14.7821 56.0641C15.0967 56.6553 15.6996 56.9506 16.1261 56.7222L36.2339 45.9507C36.6604 45.7222 36.7512 45.0553 36.4367 44.4641C36.1221 43.873 35.5192 43.5776 35.0927 43.8061L14.9849 54.5775Z" fill="#4C9B7B"/>
<path d="M17.4614 59.2334C17.0349 59.4619 16.9441 60.1289 17.2587 60.72C17.5732 61.3111 18.1761 61.6065 18.6026 61.3781L38.7105 50.6066C39.137 50.3781 39.2278 49.7111 38.9132 49.12C38.5987 48.5288 37.9958 48.2335 37.5692 48.4619L17.4614 59.2334Z" fill="#4C9B7B"/>
<path d="M19.9389 63.8891C19.5124 64.1176 19.4216 64.7846 19.7362 65.3758C20.0508 65.9669 20.6537 66.2623 21.0802 66.0338L41.188 55.2624C41.6145 55.0339 41.7053 54.3669 41.3908 53.7757C41.0762 53.1846 40.4733 52.8892 40.0468 53.1177L19.9389 63.8891Z" fill="#4C9B7B"/>
<path d="M23.8438 22.1587L42.0638 23.275L47.1664 8.00716L31.1855 4.61926L23.8438 22.1587Z" fill="#2F2E41"/>
<path d="M36.9843 18.2979C41.0088 18.2979 44.2713 15.0245 44.2713 10.9866C44.2713 6.94859 41.0088 3.67517 36.9843 3.67517C32.9598 3.67517 29.6973 6.94859 29.6973 10.9866C29.6973 15.0245 32.9598 18.2979 36.9843 18.2979Z" fill="#FFB8B8"/>
<path d="M48.8229 25.673L37.0099 27.6125L33.8955 15.2212L42.1646 14.4669L48.8229 25.673Z" fill="#FFB8B8"/>
<path d="M55.6962 76.5312L55.7435 77.1001C46.5707 80.2691 36.7571 81.1029 27.1838 79.5267L27.1215 80.5374C27.0867 81.0789 26.9252 81.6047 26.6504 82.0721C26.3755 82.5395 25.9949 82.9354 25.5392 83.2278C25.0836 83.5203 24.5658 83.7011 24.0276 83.7556C23.4895 83.8101 22.9461 83.7367 22.4414 83.5415L24.4776 79.0138L27.0528 73.2836L28.741 69.5274L28.1331 56.5326L28.0687 55.1879L27.9892 53.4725L29.0889 53.466L36.907 53.4186L44.3578 53.3712L45.494 53.3647C52.6184 62.1572 58.497 69.3033 55.6962 76.5312Z" fill="#2F2E41"/>
<path d="M45.3865 53.257L27.9891 55.1966L27.3447 43.1285C25.303 37.9038 26.6508 33.2404 30.8881 29.0555L31.7496 25.6343C31.9757 24.7363 32.4429 23.9177 33.1003 23.2675C33.7578 22.6173 34.5804 22.1605 35.4785 21.9466C38.3263 20.3079 41.5522 19.5268 45.1717 19.6388C46.6172 20.2052 47.8428 21.223 48.6676 22.5418C49.4923 23.8607 49.8725 25.4107 49.7518 26.963C49.0032 36.4471 47.6594 45.3251 45.3865 53.257Z" fill="#4C9B7B"/>
<path d="M40.4468 32.9999L40.3072 34.058L38.0842 50.8865L36.9072 53.4187L36.5227 54.2462L27.5599 73.5142L27.184 79.5267L27.1217 80.5374C27.0917 81.0404 26.9524 81.5308 26.7136 81.9741C26.4747 82.4174 26.142 82.8029 25.7389 83.1036C25.3359 83.4042 24.8721 83.6127 24.3802 83.7145C23.8883 83.8162 23.3801 83.8088 22.8914 83.6926C22.4026 83.5764 21.9452 83.3543 21.551 83.042C21.1569 82.7296 20.8356 82.3345 20.6098 81.8844C20.384 81.4343 20.259 80.94 20.2438 80.4363C20.2285 79.9326 20.3233 79.4316 20.5214 78.9685L20.8801 78.1216L22.8346 73.5142L28.1333 56.5327L28.5693 55.1319L29.0891 53.4661L30.5668 48.7315L32.9208 34.1723L33.1442 32.7844L40.4468 32.9999Z" fill="#FFB8B8"/>
<path d="M41.7355 34.5084C38.3601 33.2913 35.122 33.162 32.0703 34.5084L33.0664 25.8462C33.0298 24.7645 33.4178 23.7117 34.1469 22.914C34.876 22.1163 35.8879 21.6375 36.9651 21.5807C37.5063 21.5521 38.0478 21.631 38.5585 21.8128C39.0692 21.9946 39.5391 22.2758 39.9413 22.6402C40.3435 23.0047 40.67 23.4452 40.9022 23.9365C41.1343 24.4278 41.2675 24.9603 41.2941 25.5034L41.7355 34.5084Z" fill="#4C9B7B"/>
<path d="M31.4714 2.34822C31.4714 2.34822 27.7035 3.72782 27.6068 8.74356C27.6014 9.58759 27.7137 10.4282 27.9404 11.2411C28.1847 12.1629 28.3807 14.163 26.7377 16.8292C25.6642 18.5598 24.6936 20.3526 23.8311 22.1982L28.0736 22.609L28.7752 15.5524C29.1153 12.1312 29.9556 8.77892 31.2691 5.60335L31.2965 5.53707C31.2965 5.53707 33.2429 8.93128 36.9421 8.82673L35.5837 7.5385C35.5837 7.5385 40.217 9.28915 42.7365 9.64065C43.024 9.68082 43.2951 9.79893 43.5207 9.98228C43.7463 10.1656 43.9178 10.4072 44.0166 10.6811C44.1155 10.955 44.138 11.2507 44.0817 11.5365C44.0255 11.8222 43.8926 12.0872 43.6974 12.3028C43.6826 12.319 43.6675 12.3353 43.6521 12.3516C42.1114 13.9871 39.0448 17.7884 40.9763 20.6524C42.9078 23.5163 41.3447 24.3565 41.3447 24.3565L44.2066 22.6837L45.5054 21.851L45.5352 22.9114L52.3829 21.9219C52.3829 21.9219 54.225 21.6045 50.135 17.2096C50.135 17.2096 49.0393 15.489 49.4548 13.9665C49.7989 12.8087 49.8635 11.5853 49.6433 10.3975C48.6158 5.45251 44.8547 -4.3301 31.4714 2.34822Z" fill="#2F2E41"/>
</svg>
