<svg width="94" height="90" viewBox="0 0 94 90" fill="none" xmlns="http://www.w3.org/2000/svg">
<path d="M40.2597 87.1253C33.6242 87.1253 27.1377 85.1622 21.6205 81.4845C16.1033 77.8067 11.8031 72.5793 9.2638 66.4634C6.7245 60.3474 6.0601 53.6176 7.35463 47.125C8.64915 40.6323 11.8445 34.6684 16.5365 29.9875C21.2285 25.3066 27.2065 22.1188 33.7145 20.8273C40.2225 19.5359 46.9683 20.1987 53.0987 22.732C59.2291 25.2653 64.4689 29.5553 68.1554 35.0595C71.8419 40.5637 73.8095 47.0349 73.8095 53.6547C73.7994 62.5286 70.2615 71.0361 63.9719 77.3109C57.6823 83.5856 49.1546 87.1152 40.2597 87.1253ZM40.2597 20.8218C33.7506 20.8218 27.3877 22.7474 21.9755 26.3551C16.5634 29.9628 12.3451 35.0907 9.8542 41.0901C7.36327 47.0895 6.71152 53.6912 7.98139 60.0601C9.25126 66.4291 12.3857 72.2794 16.9883 76.8712C21.591 81.4629 27.4551 84.59 33.8392 85.8568C40.2232 87.1237 46.8405 86.4735 52.8541 83.9885C58.8678 81.5034 64.0077 77.2951 67.624 71.8958C71.2403 66.4964 73.1705 60.1485 73.1705 53.6547C73.1606 44.9499 69.6901 36.6044 63.5203 30.4492C57.3504 24.2939 48.9852 20.8316 40.2597 20.8218Z" fill="#3F3D56"/>
<path d="M51.7512 43.78C54.5781 41.3532 56.2952 37.5196 55.8449 33.7875C55.3946 30.0554 52.6055 26.6245 48.9877 25.832C45.3699 25.0395 41.2458 27.2333 40.147 30.8238C39.5422 23.9015 38.8454 16.6893 35.2229 10.7944C31.9428 5.45665 26.2616 1.63733 20.1045 0.954048C13.9473 0.270761 7.46467 2.85144 3.62469 7.78869C-0.215284 12.7259 -1.15549 19.9037 1.53393 25.5721C3.51513 29.7478 7.16519 32.8554 10.9896 35.3836C23.1906 43.4494 38.326 46.1746 52.7275 44.0214L51.7512 43.78Z" fill="#E6E6E6"/>
<path d="M9.24178 2.47858C14.4319 6.77403 19.1933 11.5782 23.4571 16.8215C30.13 24.9992 35.5297 34.1678 39.4682 44.0081C39.7565 44.726 38.6093 45.0384 38.3242 44.3286C31.8801 28.3361 21.5927 14.2405 8.40286 3.33099C7.81057 2.84093 8.65437 1.99256 9.24178 2.47858Z" fill="white"/>
<path d="M58.1534 48.4482H52.9346V35.0562C52.9351 34.6628 53.1153 34.2856 53.4356 34.0075C53.7559 33.7293 54.1903 33.5728 54.6433 33.5724H56.4447C56.8977 33.5728 57.3321 33.7293 57.6524 34.0075C57.9727 34.2856 58.1529 34.6628 58.1534 35.0562V48.4482Z" fill="#3F3D56"/>
<path d="M60.3895 70.0181H18.7881L18.6387 46.6026C18.6371 46.2409 18.7083 45.8825 18.8481 45.5488C18.9878 45.2151 19.1932 44.9128 19.4521 44.6598L29.9028 34.4944C30.3986 34.0105 31.0629 33.7372 31.7561 33.7321L49.2472 33.5724C49.6438 33.57 50.0361 33.6545 50.3964 33.8201C50.7567 33.9857 51.0762 34.2283 51.3323 34.5307L51.3338 34.5325L59.6415 44.7072C60.1247 45.3001 60.3888 46.041 60.3895 46.8055L60.3895 70.0181Z" fill="#3F3D56"/>
<path d="M60.39 70.018H38.0234V49.0855C38.0236 48.4478 38.252 47.8309 38.6675 47.3456L48.3854 36.0012V36.0013C48.6379 35.7059 48.952 35.4687 49.3057 35.3062C49.6595 35.1436 50.0445 35.0596 50.4341 35.0599H50.4443C50.8356 35.0611 51.2219 35.1473 51.5763 35.3125C51.9307 35.4778 52.2445 35.718 52.496 36.0166L59.7591 44.626C60.1663 45.1092 60.3897 45.7198 60.39 46.3506V70.018Z" fill="#A7CB73"/>
<path d="M50.708 61.8364H47.7047C47.5099 61.8362 47.3231 61.7639 47.1853 61.6354C47.0475 61.5069 46.97 61.3327 46.9697 61.151V58.8029C46.97 58.6211 47.0475 58.4469 47.1853 58.3184C47.3231 58.1899 47.5099 58.1176 47.7047 58.1174H50.708C50.9029 58.1176 51.0897 58.1899 51.2275 58.3184C51.3653 58.4469 51.4428 58.6211 51.443 58.8029V61.151C51.4428 61.3327 51.3653 61.5069 51.2275 61.6354C51.0897 61.7639 50.9029 61.8362 50.708 61.8364Z" fill="white"/>
<path d="M50.708 55.1423H47.7047C47.5099 55.1421 47.3231 55.0687 47.1853 54.9383C47.0475 54.8079 46.97 54.6311 46.9697 54.4466V52.119C46.97 51.9345 47.0475 51.7577 47.1853 51.6273C47.3231 51.4969 47.5099 51.4236 47.7047 51.4233H50.708C50.9029 51.4236 51.0897 51.4969 51.2275 51.6273C51.3653 51.7577 51.4428 51.9345 51.443 52.119V54.4466C51.4428 54.6311 51.3653 54.8079 51.2275 54.9383C51.0897 55.0687 50.9029 55.1421 50.708 55.1423Z" fill="white"/>
<path d="M30.5781 61.0926H27.5749C27.38 61.0924 27.1932 61.0056 27.0554 60.8514C26.9176 60.6972 26.8401 60.4882 26.8398 60.2701V57.4524C26.8401 57.2343 26.9176 57.0253 27.0554 56.8711C27.1932 56.7169 27.38 56.6301 27.5749 56.6299H30.5781C30.773 56.6301 30.9598 56.7169 31.0976 56.8711C31.2354 57.0253 31.3129 57.2343 31.3131 57.4524V60.2701C31.3129 60.4882 31.2354 60.6972 31.0976 60.8514C30.9598 61.0056 30.773 61.0924 30.5781 61.0926Z" fill="white"/>
<path d="M30.5781 54.3985H27.5749C27.38 54.3983 27.1932 54.3102 27.0554 54.1537C26.9176 53.9972 26.8401 53.7851 26.8398 53.5637V50.7706C26.8401 50.5493 26.9176 50.3371 27.0554 50.1806C27.1932 50.0241 27.38 49.9361 27.5749 49.9358H30.5781C30.773 49.9361 30.9598 50.0241 31.0976 50.1806C31.2354 50.3371 31.3129 50.5493 31.3131 50.7706V53.5637C31.3129 53.7851 31.2354 53.9972 31.0976 54.1537C30.9598 54.3102 30.773 54.3983 30.5781 54.3985Z" fill="white"/>
<ellipse cx="76.7922" cy="72.2495" rx="17.1477" ry="17.1072" fill="#4C9B7B"/>
<path d="M82.1389 77.3912C81.6994 78.5851 80.8836 79.4512 79.6917 79.9893C78.5052 80.513 77.0498 80.5746 75.3255 80.1741L74.425 82.6202L72.2359 81.8181L73.1123 79.4375C72.0537 78.9835 71.0945 78.4173 70.2346 77.7386C69.3747 77.06 68.7313 76.3781 68.3045 75.693L70.4894 73.4697C70.8939 74.0806 71.4174 74.6607 72.0599 75.2101C72.7024 75.7594 73.4042 76.2149 74.1655 76.5765L75.5083 72.9292C74.5632 72.302 73.7894 71.7045 73.1868 71.1367C72.5843 70.5689 72.1494 69.9056 71.8822 69.1467C71.6203 68.3733 71.669 67.4988 72.0281 66.5233C72.473 65.3148 73.2914 64.4415 74.4833 63.9033C75.6952 63.3559 77.1679 63.2924 78.9013 63.7127L79.7938 61.2885L81.983 62.0906L81.1066 64.4712C82.8481 65.2745 84.1659 66.2614 85.0601 67.4317L82.9766 69.717C82.1125 68.6898 81.1354 67.9022 80.0452 67.354L78.6784 71.0668C79.6142 71.6741 80.3761 72.259 80.9641 72.8214C81.572 73.3747 82.0069 74.038 82.2688 74.8114C82.536 75.5703 82.4927 76.4302 82.1389 77.3912ZM75.617 67.64C75.483 68.004 75.5117 68.3533 75.7033 68.6878C75.8948 69.0224 76.2238 69.366 76.6902 69.7187L77.832 66.6174C77.2291 66.5453 76.7428 66.6066 76.3728 66.8016C76.0083 66.982 75.7563 67.2614 75.617 67.64ZM76.3869 77.2912C76.9552 77.3673 77.4189 77.3224 77.7781 77.1566C78.1373 76.9907 78.3839 76.7258 78.5179 76.3618C78.6519 75.9978 78.6231 75.6485 78.4316 75.314C78.2546 74.9848 77.9429 74.6392 77.4964 74.2773L76.3869 77.2912Z" fill="white"/>
</svg>
