<svg width="104" height="97" viewBox="0 0 104 97" fill="none" xmlns="http://www.w3.org/2000/svg">
<path d="M96.3574 15.9342H90.9097V1.92171C90.9102 1.51008 91.0983 1.11545 91.4327 0.824383C91.767 0.533321 92.2204 0.369605 92.6933 0.369141H94.5738C95.0467 0.369605 95.5 0.533321 95.8344 0.824383C96.1688 1.11545 96.3569 1.51008 96.3574 1.92171V15.9342Z" fill="#3F3D56"/>
<path d="M98.6921 38.5036H55.2658L55.1099 14.0031C55.1083 13.6246 55.1826 13.2497 55.3284 12.9005C55.4743 12.5513 55.6887 12.235 55.959 11.9703L66.8681 1.33388C67.3856 0.827531 68.079 0.541639 68.8027 0.53625L87.0611 0.369195C87.4751 0.366633 87.8846 0.455098 88.2607 0.628351C88.6367 0.801604 88.9702 1.05542 89.2376 1.37185L89.2391 1.37379L97.9112 12.0199C98.4156 12.6403 98.6913 13.4156 98.6921 14.2154L98.6921 38.5036Z" fill="#3F3D56"/>
<path d="M98.6919 38.5036H75.3442V16.6012C75.3445 15.9338 75.5828 15.2884 76.0165 14.7806L86.1607 2.91049V2.91066C86.4243 2.60158 86.7522 2.35341 87.1214 2.18333C87.4907 2.01325 87.8926 1.92533 88.2992 1.92566H88.3099C88.7184 1.92687 89.1216 2.01707 89.4916 2.18996C89.8615 2.36284 90.1891 2.61425 90.4516 2.92661L98.0333 11.935C98.4584 12.4406 98.6915 13.0794 98.6919 13.7395V38.5036Z" fill="#4C9B7B"/>
<path d="M88.5859 29.9428H85.4509C85.2474 29.9426 85.0524 29.8669 84.9086 29.7325C84.7647 29.598 84.6838 29.4157 84.6836 29.2256V26.7687C84.6838 26.5786 84.7647 26.3963 84.9086 26.2618C85.0524 26.1274 85.2474 26.0517 85.4509 26.0515H88.5859C88.7893 26.0517 88.9843 26.1274 89.1281 26.2618C89.272 26.3963 89.3529 26.5786 89.3531 26.7687V29.2256C89.3529 29.4157 89.272 29.598 89.1281 29.7325C88.9843 29.8669 88.7893 29.9426 88.5859 29.9428Z" fill="white"/>
<path d="M88.5859 22.9385H85.4509C85.2474 22.9383 85.0524 22.8615 84.9086 22.7251C84.7647 22.5886 84.6838 22.4036 84.6836 22.2106V19.7751C84.6838 19.5821 84.7647 19.3971 84.9086 19.2607C85.0524 19.1242 85.2474 19.0475 85.4509 19.0472H88.5859C88.7893 19.0475 88.9843 19.1242 89.1281 19.2607C89.272 19.3971 89.3529 19.5821 89.3531 19.7751V22.2106C89.3529 22.4036 89.272 22.5886 89.1281 22.7251C88.9843 22.8615 88.7893 22.9383 88.5859 22.9385Z" fill="white"/>
<path d="M67.5731 29.1645H64.4382C64.2348 29.1642 64.0397 29.0735 63.8959 28.9121C63.7521 28.7508 63.6711 28.532 63.6709 28.3039V25.3556C63.6711 25.1275 63.7521 24.9087 63.8959 24.7474C64.0397 24.586 64.2348 24.4953 64.4382 24.495H67.5731C67.7766 24.4953 67.9716 24.586 68.1154 24.7474C68.2593 24.9087 68.3402 25.1275 68.3404 25.3556V28.3039C68.3402 28.532 68.2593 28.7508 68.1154 28.9121C67.9716 29.0735 67.7766 29.1642 67.5731 29.1645Z" fill="white"/>
<path d="M67.5731 22.1602H64.4382C64.2348 22.16 64.0397 22.0679 63.8959 21.9041C63.7521 21.7404 63.6711 21.5183 63.6709 21.2868V18.3642C63.6711 18.1326 63.7521 17.9106 63.8959 17.7469C64.0397 17.5831 64.2348 17.491 64.4382 17.4907H67.5731C67.7766 17.491 67.9716 17.5831 68.1154 17.7469C68.2593 17.9106 68.3402 18.1326 68.3404 18.3642V21.2868C68.3402 21.5183 68.2593 21.7404 68.1154 21.9041C67.9716 22.0679 67.7766 22.16 67.5731 22.1602Z" fill="white"/>
<path d="M45.4366 61.3843H40.228V47.987C40.2285 47.5934 40.4084 47.2161 40.7281 46.9378C41.0478 46.6595 41.4813 46.503 41.9334 46.5026H43.7313C44.1834 46.503 44.6169 46.6595 44.9366 46.9378C45.2563 47.2161 45.4361 47.5934 45.4366 47.987V61.3843Z" fill="#3F3D56"/>
<path d="M47.6689 82.9628H6.14909L6.00003 59.538C5.99846 59.1761 6.06952 58.8176 6.20897 58.4838C6.34843 58.1499 6.55344 57.8475 6.81186 57.5944L17.242 47.425C17.7368 46.9408 18.3998 46.6675 19.0917 46.6623L36.5485 46.5026C36.9443 46.5002 37.3358 46.5847 37.6954 46.7504C38.055 46.916 38.3738 47.1587 38.6294 47.4613L38.6309 47.4631L46.9223 57.6419C47.4045 58.235 47.6681 58.9762 47.6688 59.741L47.6689 82.9628Z" fill="#3F3D56"/>
<path d="M47.6688 82.9628H25.3462V62.0219C25.3464 61.3839 25.5743 60.7668 25.989 60.2813L35.6878 48.9323V48.9325C35.9399 48.637 36.2533 48.3997 36.6063 48.2371C36.9594 48.0745 37.3436 47.9904 37.7324 47.9907H37.7426C38.1332 47.9919 38.5187 48.0781 38.8724 48.2434C39.2261 48.4087 39.5394 48.6491 39.7903 48.9477L47.0391 57.5606C47.4456 58.044 47.6685 58.6548 47.6688 59.2859V82.9628Z" fill="#A7CB73"/>
<path d="M38.0063 74.7777H35.009C34.8145 74.7775 34.628 74.7052 34.4905 74.5766C34.353 74.4481 34.2756 74.2738 34.2754 74.092V71.7429C34.2756 71.5612 34.353 71.3869 34.4905 71.2583C34.628 71.1298 34.8145 71.0575 35.009 71.0573H38.0063C38.2008 71.0575 38.3873 71.1298 38.5248 71.2583C38.6623 71.3869 38.7397 71.5612 38.7399 71.7429V74.092C38.7397 74.2738 38.6623 74.4481 38.5248 74.5766C38.3873 74.7052 38.2008 74.7775 38.0063 74.7777Z" fill="white"/>
<path d="M38.0063 68.081H35.009C34.8145 68.0808 34.628 68.0074 34.4905 67.877C34.353 67.7465 34.2756 67.5696 34.2754 67.3851V65.0565C34.2756 64.872 34.353 64.6951 34.4905 64.5647C34.628 64.4342 34.8145 64.3608 35.009 64.3606H38.0063C38.2008 64.3608 38.3873 64.4342 38.5248 64.5647C38.6623 64.6951 38.7397 64.872 38.7399 65.0565V67.3851C38.7397 67.5696 38.6623 67.7465 38.5248 67.877C38.3873 68.0074 38.2008 68.0808 38.0063 68.081Z" fill="white"/>
<path d="M17.916 74.0337H14.9186C14.7242 74.0335 14.5377 73.9467 14.4002 73.7924C14.2626 73.6382 14.1853 73.429 14.1851 73.2109V70.3921C14.1853 70.1739 14.2626 69.9648 14.4002 69.8105C14.5377 69.6562 14.7242 69.5695 14.9186 69.5692H17.916C18.1105 69.5695 18.2969 69.6562 18.4345 69.8105C18.572 69.9648 18.6493 70.1739 18.6496 70.3921V73.2109C18.6493 73.429 18.572 73.6382 18.4345 73.7924C18.2969 73.9467 18.1105 74.0335 17.916 74.0337Z" fill="white"/>
<path d="M17.916 67.337H14.9186C14.7242 67.3367 14.5377 67.2486 14.4002 67.0921C14.2626 66.9355 14.1853 66.7232 14.1851 66.5018V63.7076C14.1853 63.4862 14.2626 63.2739 14.4002 63.1173C14.5377 62.9608 14.7242 62.8727 14.9186 62.8724H17.916C18.1105 62.8727 18.2969 62.9608 18.4345 63.1173C18.572 63.2739 18.6493 63.4862 18.6496 63.7076V66.5018C18.6493 66.7232 18.572 66.9355 18.4345 67.0921C18.2969 67.2486 18.1105 67.3367 17.916 67.337Z" fill="white"/>
<g filter="url(#filter0_d)">
<path d="M85.8868 54.3551C86.0733 61.1594 81.698 74.605 62.705 73.9535M65.2644 76.988L62.5505 74.0986L65.4864 71.3411" stroke="#4C9B7B" stroke-width="4" stroke-linecap="round" stroke-linejoin="round"/>
</g>
<g filter="url(#filter1_d)">
<path d="M18.1395 35.8253C17.7402 29.0302 21.6924 15.4542 40.6964 15.5108M38.0433 12.5579L40.8463 15.3609L37.9982 18.209" stroke="#4C9B7B" stroke-width="4" stroke-linecap="round" stroke-linejoin="round"/>
</g>
<defs>
<filter id="filter0_d" x="49.7236" y="44.3723" width="53.3036" height="52.3013" filterUnits="userSpaceOnUse" color-interpolation-filters="sRGB">
<feFlood flood-opacity="0" result="BackgroundImageFix"/>
<feColorMatrix in="SourceAlpha" type="matrix" values="0 0 0 0 0 0 0 0 0 0 0 0 0 0 0 0 0 0 127 0"/>
<feOffset dy="4"/>
<feGaussianBlur stdDeviation="5"/>
<feColorMatrix type="matrix" values="0 0 0 0 0 0 0 0 0 0 0 0 0 0 0 0 0 0 0.1 0"/>
<feBlend mode="normal" in2="BackgroundImageFix" result="effect1_dropShadow"/>
<feBlend mode="normal" in="SourceGraphic" in2="effect1_dropShadow" result="shape"/>
</filter>
<filter id="filter1_d" x="0.856445" y="0.956421" width="52.8185" height="52.8185" filterUnits="userSpaceOnUse" color-interpolation-filters="sRGB">
<feFlood flood-opacity="0" result="BackgroundImageFix"/>
<feColorMatrix in="SourceAlpha" type="matrix" values="0 0 0 0 0 0 0 0 0 0 0 0 0 0 0 0 0 0 127 0"/>
<feOffset dy="4"/>
<feGaussianBlur stdDeviation="5"/>
<feColorMatrix type="matrix" values="0 0 0 0 0 0 0 0 0 0 0 0 0 0 0 0 0 0 0.1 0"/>
<feBlend mode="normal" in2="BackgroundImageFix" result="effect1_dropShadow"/>
<feBlend mode="normal" in="SourceGraphic" in2="effect1_dropShadow" result="shape"/>
</filter>
</defs>
</svg>
