<svg width="74" height="100" viewBox="0 0 74 100" fill="none" xmlns="http://www.w3.org/2000/svg">
<path d="M1.03795 8.3656C0.817541 8.36535 0.606037 8.45287 0.449828 8.60894C0.29362 8.76502 0.20546 8.97691 0.204694 9.19815L5.28594e-07 98.4859C-0.000247695 98.7071 0.0869358 98.9194 0.242427 99.0762C0.397919 99.233 0.609018 99.3215 0.829423 99.3223L72.4907 99.4878C72.7112 99.4881 72.9226 99.4005 73.0789 99.2445C73.2351 99.0884 73.3232 98.8765 73.324 98.6553L73.5287 9.36751C73.5289 9.14628 73.4417 8.93398 73.2863 8.77719C73.1308 8.62039 72.9197 8.5319 72.6993 8.53113L1.03795 8.3656Z" fill="#E6E6E6"/>
<path d="M3.69172 11.042C3.47131 11.0417 3.25981 11.1293 3.1036 11.2853C2.94739 11.4414 2.85923 11.6533 2.85847 11.8745L2.66602 95.8217C2.66577 96.0429 2.75295 96.2552 2.90844 96.412C3.06393 96.5688 3.27503 96.6573 3.49544 96.6581L69.8363 96.8113C70.0567 96.8116 70.2682 96.724 70.4244 96.568C70.5806 96.4119 70.6688 96.2 70.6695 95.9788L70.862 12.0316C70.8622 11.8104 70.775 11.5981 70.6196 11.4413C70.4641 11.2845 70.253 11.196 70.0326 11.1952L3.69172 11.042Z" fill="white"/>
<path d="M61.2203 47.4952L12.3376 47.3823C12.1738 47.382 12.0116 47.3493 11.8604 47.2861C11.7092 47.2229 11.5718 47.1304 11.4562 47.0139C11.3406 46.8974 11.249 46.7592 11.1867 46.6071C11.1243 46.4551 11.0924 46.2922 11.0928 46.1277C11.0932 45.9633 11.1258 45.8005 11.1889 45.6488C11.2519 45.497 11.3442 45.3592 11.4603 45.2432C11.5764 45.1273 11.7142 45.0354 11.8657 44.9729C12.0172 44.9104 12.1795 44.8784 12.3433 44.8789L61.2261 44.9918C61.5567 44.9928 61.8734 45.1255 62.1066 45.3607C62.3397 45.596 62.4703 45.9145 62.4695 46.2464C62.4688 46.5783 62.3368 46.8962 62.1025 47.1304C61.8682 47.3646 61.5509 47.4958 61.2203 47.4952Z" fill="#E6E6E6"/>
<path d="M61.6942 24.1729L29.2639 24.098C28.807 24.0969 28.4379 23.5357 28.4395 22.8444C28.441 22.1531 28.8127 21.5936 29.2696 21.5946L61.6999 21.6695C62.1569 21.6706 62.5259 22.2318 62.5243 22.9231C62.5228 23.6144 62.1511 24.174 61.6942 24.1729Z" fill="#E6E6E6"/>
<path d="M61.6776 31.3493L29.2473 31.2744C28.7904 31.2733 28.4213 30.7121 28.4229 30.0208C28.4244 29.3295 28.7961 28.7699 29.253 28.771L61.6833 28.8459C62.1403 28.847 62.5093 29.4082 62.5078 30.0995C62.5062 30.7908 62.1345 31.3504 61.6776 31.3493Z" fill="#E6E6E6"/>
<path d="M61.2024 55.5896L12.3196 55.4767C11.989 55.4757 11.6723 55.343 11.4392 55.1078C11.206 54.8725 11.0754 54.5539 11.0762 54.2221C11.0769 53.8902 11.209 53.5723 11.4432 53.3381C11.6775 53.1039 11.9948 52.9727 12.3254 52.9733L61.2081 53.0862C61.5387 53.0871 61.8554 53.2198 62.0886 53.4551C62.3218 53.6903 62.4523 54.0089 62.4516 54.3408C62.4508 54.6726 62.3188 54.9906 62.0846 55.2248C61.8503 55.4589 61.533 55.5902 61.2024 55.5896Z" fill="#E6E6E6"/>
<path d="M61.1832 63.6838L12.3005 63.5709C12.1367 63.5706 11.9745 63.5379 11.8233 63.4747C11.6721 63.4115 11.5347 63.319 11.4191 63.2025C11.3035 63.086 11.2119 62.9478 11.1496 62.7957C11.0872 62.6437 11.0553 62.4808 11.0557 62.3163C11.056 62.1519 11.0887 61.9891 11.1518 61.8374C11.2148 61.6856 11.307 61.5478 11.4232 61.4318C11.5393 61.3159 11.6771 61.224 11.8286 61.1615C11.9801 61.099 12.1424 61.067 12.3062 61.0675L61.189 61.1804C61.3528 61.1807 61.5149 61.2134 61.6662 61.2766C61.8174 61.3398 61.9547 61.4323 62.0703 61.5488C62.1859 61.6653 62.2775 61.8036 62.3399 61.9556C62.4023 62.1077 62.4342 62.2706 62.4338 62.435C62.4334 62.5994 62.4007 62.7622 62.3377 62.914C62.2746 63.0657 62.1824 63.2035 62.0663 63.3195C61.9501 63.4355 61.8124 63.5273 61.6609 63.5898C61.5093 63.6524 61.347 63.6843 61.1832 63.6838Z" fill="#E6E6E6"/>
<path d="M61.165 71.7783L12.2822 71.6654C12.1185 71.665 11.9564 71.6323 11.8052 71.569C11.6541 71.5058 11.5168 71.4132 11.4013 71.2967C11.2858 71.1802 11.1942 71.042 11.1319 70.89C11.0696 70.738 11.0377 70.5752 11.0381 70.4108C11.0385 70.2464 11.0711 70.0837 11.1341 69.932C11.1971 69.7803 11.2893 69.6425 11.4054 69.5266C11.5214 69.4106 11.6591 69.3187 11.8105 69.2562C11.962 69.1936 12.1242 69.1616 12.288 69.162L61.1707 69.2749C61.5013 69.2758 61.818 69.4085 62.0512 69.6438C62.2844 69.879 62.4149 70.1976 62.4142 70.5295C62.4134 70.8613 62.2814 71.1793 62.0471 71.4135C61.8129 71.6477 61.4956 71.7789 61.165 71.7783Z" fill="#E6E6E6"/>
<path d="M61.1467 79.8725L12.264 79.7596C11.9334 79.7587 11.6167 79.626 11.3835 79.3907C11.1503 79.1555 11.0198 78.8369 11.0205 78.505C11.0213 78.1732 11.1533 77.8552 11.3875 77.621C11.6218 77.3869 11.9391 77.2556 12.2697 77.2562L61.1524 77.3691C61.4831 77.3701 61.7998 77.5028 62.0329 77.738C62.2661 77.9733 62.3967 78.2919 62.3959 78.6237C62.3951 78.9556 62.2631 79.2735 62.0289 79.5077C61.7946 79.7419 61.4773 79.8731 61.1467 79.8725Z" fill="#E6E6E6"/>
<path d="M61.1279 87.9668L12.2451 87.8539C12.0814 87.8535 11.9193 87.8207 11.7681 87.7575C11.617 87.6942 11.4797 87.6017 11.3642 87.4852C11.1309 87.2499 11.0002 86.9313 11.001 86.5993C11.0017 86.2673 11.1338 85.9492 11.3682 85.715C11.6026 85.4808 11.9201 85.3497 12.2509 85.3505L61.1336 85.4634C61.2974 85.4637 61.4596 85.4964 61.6108 85.5596C61.762 85.6228 61.8994 85.7153 62.015 85.8318C62.1306 85.9483 62.2222 86.0865 62.2845 86.2386C62.3469 86.3906 62.3788 86.5535 62.3784 86.718C62.378 86.8824 62.3454 87.0451 62.2823 87.1969C62.2193 87.3487 62.127 87.4865 62.0109 87.6024C61.8948 87.7184 61.757 87.8103 61.6055 87.8728C61.454 87.9353 61.2917 87.9672 61.1279 87.9668Z" fill="#E6E6E6"/>
<path d="M17.7063 33.0835C21.3335 33.0835 24.2739 30.132 24.2739 26.4912C24.2739 22.8504 21.3335 19.8989 17.7063 19.8989C14.0791 19.8989 11.1387 22.8504 11.1387 26.4912C11.1387 30.132 14.0791 33.0835 17.7063 33.0835Z" fill="#3F3D56"/>
<path d="M55.3596 24.5507L55.3594 8.95331C55.3933 6.62445 54.5085 4.3766 52.8981 2.69983C51.2876 1.02305 49.082 0.0533494 46.7622 0.0021361C44.4424 -0.0490771 42.1965 0.822353 40.5141 2.42643C38.8318 4.03051 37.8494 6.23715 37.7812 8.56525H39.7161C39.7848 6.78693 40.5363 5.10425 41.8131 3.86952C43.09 2.6348 44.7932 1.94379 46.5662 1.94118C46.5996 1.94118 46.6335 1.94146 46.6669 1.94194C48.4873 1.97123 50.2216 2.72466 51.4889 4.03669C52.7562 5.34872 53.4527 7.11205 53.4256 8.93928V24.5588C53.426 24.5986 53.426 24.6383 53.4256 24.6745C53.4095 25.8886 52.9182 27.0476 52.0577 27.9011C51.1972 28.7545 50.0368 29.2339 48.8271 29.2355C48.8082 29.2355 48.7893 29.2354 48.7704 29.2352C47.5493 29.2183 46.3848 28.7155 45.5329 27.8372C44.6809 26.9589 44.2112 25.777 44.227 24.5513L44.2376 9.059C44.2472 8.44996 44.4945 7.86903 44.9262 7.44105C45.358 7.01306 45.9398 6.77219 46.5467 6.77019C47.1535 6.76819 47.7369 7.00523 48.1715 7.43036C48.606 7.85549 48.8571 8.43478 48.8707 9.04374V20.8744C48.8707 21.1318 48.9726 21.3787 49.1539 21.5607C49.3353 21.7428 49.5812 21.845 49.8377 21.845C50.0942 21.845 50.3401 21.7428 50.5215 21.5607C50.7028 21.3787 50.8047 21.1318 50.8047 20.8744L50.8045 9.02838C50.7869 7.90726 50.3304 6.83815 49.5336 6.05226C48.7368 5.26637 47.6639 4.82686 46.5469 4.8288C45.4298 4.83073 44.3584 5.27394 43.5643 6.06258C42.7703 6.85121 42.3174 7.9219 42.3037 9.04307L42.2931 24.5389C42.274 26.2776 42.9428 27.9528 44.1528 29.1971C45.3627 30.4414 47.0149 31.1532 48.747 31.1763C48.774 31.1766 48.8005 31.1767 48.8275 31.1767C50.5463 31.1741 52.195 30.4926 53.4173 29.2796C54.6396 28.0666 55.3373 26.4196 55.3596 24.6945C55.36 24.6438 55.36 24.5931 55.3596 24.5507Z" fill="#4C9B7B"/>
</svg>
